<svg width="28" height="28" viewBox="0 0 28 28" fill="none" xmlns="http://www.w3.org/2000/svg">
<path d="M14 2.33337C12.4679 2.33337 10.9508 2.63514 9.53536 3.22145C8.1199 3.80775 6.83377 4.66711 5.75042 5.75046C3.5625 7.93839 2.33334 10.9058 2.33334 14C2.33334 19.1567 5.68167 23.5317 10.3133 25.0834C10.8967 25.1767 11.0833 24.815 11.0833 24.5V22.5284C7.85167 23.2284 7.16334 20.965 7.16334 20.965C6.62667 19.6117 5.86834 19.25 5.86834 19.25C4.80667 18.5267 5.95 18.55 5.95 18.55C7.11667 18.6317 7.735 19.7517 7.735 19.7517C8.75 21.525 10.465 21 11.13 20.72C11.235 19.9617 11.5383 19.4484 11.865 19.1567C9.275 18.865 6.55667 17.8617 6.55667 13.4167C6.55667 12.1217 7 11.0834 7.75834 10.255C7.64167 9.96337 7.23334 8.75004 7.875 7.17504C7.875 7.17504 8.855 6.86004 11.0833 8.36504C12.005 8.10837 13.0083 7.98004 14 7.98004C14.9917 7.98004 15.995 8.10837 16.9167 8.36504C19.145 6.86004 20.125 7.17504 20.125 7.17504C20.7667 8.75004 20.3583 9.96337 20.2417 10.255C21 11.0834 21.4433 12.1217 21.4433 13.4167C21.4433 17.8734 18.7133 18.8534 16.1117 19.145C16.5317 19.5067 16.9167 20.2184 16.9167 21.3034V24.5C16.9167 24.815 17.1033 25.1884 17.6983 25.0834C22.33 23.52 25.6667 19.1567 25.6667 14C25.6667 12.468 25.3649 10.9509 24.7786 9.5354C24.1923 8.11993 23.3329 6.83381 22.2496 5.75046C21.1662 4.66711 19.8801 3.80775 18.4646 3.22145C17.0492 2.63514 15.5321 2.33337 14 2.33337Z" fill="white"/>
</svg>
